<svg xmlns="http://www.w3.org/2000/svg" viewBox="0 0 51.32 51.32"><defs><style>.cls-1{isolation:isolate;}.cls-2,.cls-3{fill:#b66633;}.cls-3,.cls-5{opacity:0.4;}.cls-3{mix-blend-mode:multiply;}.cls-4,.cls-5{fill:#84a80f;}.cls-13,.cls-14,.cls-5{mix-blend-mode:screen;}.cls-6{fill:#618708;}.cls-7{fill:#2f7428;}.cls-8{fill:#185325;}.cls-9{fill:#e89070;}.cls-10{fill:#fff482;}.cls-11{fill:#84491e;}.cls-12,.cls-14{fill:#e28b41;}</style></defs><title>BlockFichier 1</title><g class="cls-1"><g id="Calque_2" data-name="Calque 2"><g id="Layer_1" data-name="Layer 1"><rect class="cls-2" y="5.31" width="51.32" height="46.01"/><rect class="cls-3" y="5.31" width="51.32" height="26.48"/><path class="cls-4" d="M47.75,0c-.64.05-3.34.11-4,.17a36.23,36.23,0,0,0-5.27.7c-1.76.39-3.39,1.16-5.12,1.62a16.48,16.48,0,0,1-3,.49c-2,.15-3.63-.88-5.5-1.41a12.69,12.69,0,0,0-7.25,0,16,16,0,0,1-6.1.85A49.85,49.85,0,0,1,5.17.81,23.06,23.06,0,0,0,1.2,0H0V27H51.32V0Z"/><path class="cls-5" d="M31.68,4h-1a22.38,22.38,0,0,1-4.46-.54c-2.32-.5-4.57-1.29-7-1.09A37.8,37.8,0,0,0,13.9,3.65c-2.14.49-4.18,0-6.31-.07C6.35,3.53,2.7,3.25,2.32,5c-.1.47.49,1.52.7,1.93A5,5,0,0,0,4.29,8.41a14,14,0,0,0,3.43,1.93,24.61,24.61,0,0,0,7.74,1.54,119.62,119.62,0,0,0,19.76-.13A34.06,34.06,0,0,0,46.68,9.22a6.11,6.11,0,0,0,2-1.35A3.21,3.21,0,0,0,49.43,5c-.5-1-2.18-1.42-3.19-1.68C41.4,2.09,36.55,3.78,31.68,4Z"/><path class="cls-6" d="M6.29,2.48c0,.28-.56.5-1.24.5S3.8,2.76,3.8,2.48,4.36,2,5.05,2,6.29,2.21,6.29,2.48Z"/><path class="cls-6" d="M8.43,3.39c0,.15-.32.28-.7.28S7,3.54,7,3.39s.32-.28.71-.28S8.43,3.23,8.43,3.39Z"/><path class="cls-6" d="M21.85,4.78c0,.28-.56.5-1.25.5s-1.25-.22-1.25-.5.56-.5,1.25-.5S21.85,4.51,21.85,4.78Z"/><path class="cls-6" d="M29.57,6c0,.15-.32.28-.7.28s-.71-.13-.71-.28.32-.29.71-.29S29.57,5.84,29.57,6Z"/><path class="cls-6" d="M35.8,3.58c0,.16-.31.29-.7.29s-.7-.13-.7-.29.31-.28.7-.28S35.8,3.43,35.8,3.58Z"/><path class="cls-6" d="M47.52,2.67c0,.28-.56.5-1.25.5S45,3,45,2.67s.56-.49,1.25-.49S47.52,2.4,47.52,2.67Z"/><path class="cls-7" d="M49.23,16.22a.48.48,0,0,0-.49-.25.82.82,0,0,0-.5.24,3,3,0,0,0-.61,1.13c-.07-1.07-.4-1.95-1.42-1.86-.86.08-1.7,1-2.25,1.62a5.32,5.32,0,0,0-.67.89.53.53,0,0,1,0-.12,5.22,5.22,0,0,0,.31-1.42,1.08,1.08,0,0,0,0-.19.08.08,0,0,0,0,0c-.54,0-1,.91-1.26,1.51-.06.14-.12.26-.15.35a7.8,7.8,0,0,0-.35,1c0-1.27-.26-2.53-1.37-1.62a5.14,5.14,0,0,0-.41.4,11,11,0,0,0-.9,1.25c-.1-.12-.26-.3-.34-.31s-.41.17-.53.3l-.21.28C37.81,18,36.42,14,34.35,16a3.71,3.71,0,0,0-.84,1.33,4.19,4.19,0,0,0-.42,1.8c-.24-.72-.62-1.4-1.12-1.16-.31.14-.43.62-.51.91,0,.09-.06.2-.09.33a7.26,7.26,0,0,0-.44-.83A7.06,7.06,0,0,0,27,15.22a1.45,1.45,0,0,0-1,.46,2.85,2.85,0,0,0-.72,1.37c-1.2-1.05-3.08-.6-4.26.84l-.05.05-.28.39a5.06,5.06,0,0,0-.44.83c0-.13-.08-.24-.1-.33-.08-.29-.2-.77-.51-.91-.5-.24-.88.44-1.12,1.16a4.19,4.19,0,0,0-.42-1.8A3.71,3.71,0,0,0,17.31,16c-2.07-2-3.46,2-3.69,3.42-.07-.09-.13-.19-.21-.28s-.33-.34-.53-.3-.35.26-.4.52a14.41,14.41,0,0,0-1-1.46,5.14,5.14,0,0,0-.41-.4c-1.12-.91-1.37.35-1.38,1.62a6.45,6.45,0,0,0-.34-1,2.79,2.79,0,0,0-.15-.35c-.26-.6-.72-1.53-1.26-1.51a.08.08,0,0,0,0,0,1.08,1.08,0,0,0,0,.19,5.22,5.22,0,0,0,.31,1.42l0,.12a5.32,5.32,0,0,0-.67-.89c-.55-.59-1.39-1.54-2.25-1.62-1-.09-1.35.79-1.42,1.86a2.89,2.89,0,0,0-.61-1.13.82.82,0,0,0-.5-.24.48.48,0,0,0-.49.25A2.66,2.66,0,0,0,0,13.35V27.13H51.32V13.35A2.71,2.71,0,0,0,49.23,16.22Z"/><path class="cls-8" d="M49.23,20.09a.48.48,0,0,0-.49-.25.87.87,0,0,0-.5.24,3,3,0,0,0-.61,1.13c-.07-1.07-.4-1.95-1.42-1.86-.86.08-1.7,1-2.25,1.61a5.84,5.84,0,0,0-.67.9.53.53,0,0,1,0-.12,5.22,5.22,0,0,0,.31-1.42,1.08,1.08,0,0,0,0-.19s0,0,0,0c-.54,0-1,.9-1.26,1.5-.06.14-.12.26-.15.35a7.8,7.8,0,0,0-.35,1c0-1.27-.26-2.53-1.37-1.62a3.85,3.85,0,0,0-.41.4,11,11,0,0,0-.9,1.25c-.1-.12-.26-.3-.34-.31s-.41.17-.53.3l-.21.28c-.23-1.42-1.62-5.41-3.69-3.42a3.71,3.71,0,0,0-.84,1.33,4.19,4.19,0,0,0-.42,1.8c-.24-.72-.62-1.4-1.12-1.16-.31.14-.43.62-.51.91,0,.09-.06.2-.09.33a7.26,7.26,0,0,0-.44-.83A7,7,0,0,0,27,19.1a1.42,1.42,0,0,0-1,.44,2.92,2.92,0,0,0-.72,1.38c-1.2-1.05-3.08-.6-4.26.84l-.05,0-.28.39a5.06,5.06,0,0,0-.44.83c0-.13-.08-.24-.1-.33-.08-.29-.2-.77-.51-.91-.5-.24-.88.44-1.12,1.16a4.19,4.19,0,0,0-.42-1.8,3.71,3.71,0,0,0-.84-1.33c-2.07-2-3.46,2-3.69,3.42-.07-.09-.13-.19-.21-.28s-.33-.34-.53-.3-.35.26-.4.53a13.48,13.48,0,0,0-1-1.47,3.85,3.85,0,0,0-.41-.4c-1.12-.91-1.37.35-1.38,1.62a6.45,6.45,0,0,0-.34-1,2.79,2.79,0,0,0-.15-.35c-.26-.6-.72-1.53-1.26-1.5,0,0,0,0,0,0a1.08,1.08,0,0,0,0,.19,5.22,5.22,0,0,0,.31,1.42l0,.12A5.84,5.84,0,0,0,7.5,21c-.55-.58-1.39-1.53-2.25-1.61-1-.09-1.35.79-1.42,1.86a2.83,2.83,0,0,0-.61-1.13.87.87,0,0,0-.5-.24.48.48,0,0,0-.49.25A2.66,2.66,0,0,0,0,17.22V31H51.32V17.22A2.71,2.71,0,0,0,49.23,20.09Z"/><path class="cls-9" d="M48.67,26.34a.65.65,0,0,0-.16-.13,1.82,1.82,0,0,0,.24-.29.89.89,0,0,0-.3-1.14,1,1,0,0,0-1.19.12l-.14.13a1,1,0,0,0-.25-.57,1.12,1.12,0,0,0-1.63,0A1.15,1.15,0,0,0,45,25.79a.44.44,0,0,0,.09.11l.06.1a.86.86,0,0,0-.74.53.82.82,0,0,0,.54,1.21.79.79,0,0,0,.37.05c-.15.4,0,.72.47.92a1.11,1.11,0,0,0,1.35-.42,1,1,0,0,1,.08-.11h0a1,1,0,0,0,.51.2,1.25,1.25,0,0,0,1-2Z"/><path class="cls-10" d="M47.53,26.46a.92.92,0,1,1-.91-.92A.91.91,0,0,1,47.53,26.46Z"/><path class="cls-9" d="M30.89,27.37a.5.5,0,0,0,0-.16.78.78,0,0,0,.29-.06.7.7,0,0,0,.37-.86.79.79,0,0,0-.81-.51l-.15,0a.89.89,0,0,0,.12-.49.88.88,0,0,0-1-.79.9.9,0,0,0-.81.7.2.2,0,0,0,0,.11.28.28,0,0,0,0,.09.7.7,0,0,0-.73,0,.65.65,0,0,0-.25,1,.7.7,0,0,0,.21.21c-.29.18-.35.45-.16.81a.89.89,0,0,0,1.06.4l.1,0h0a.7.7,0,0,0,.23.37.92.92,0,0,0,1,.14A.93.93,0,0,0,30.89,27.37Z"/><path class="cls-10" d="M30.12,26.89a.73.73,0,1,1-.13-1A.72.72,0,0,1,30.12,26.89Z"/><path class="cls-9" d="M16.93,22.71l-.08-.07a.71.71,0,0,0,.12-.15.48.48,0,0,0-.17-.61.53.53,0,0,0-.63.08.46.46,0,0,0-.07.07.71.71,0,0,0-.14-.31.63.63,0,0,0-1,.73l0,.06,0,0a.48.48,0,0,0-.39.29.44.44,0,0,0,.3.64.46.46,0,0,0,.2,0c-.08.22,0,.38.25.49a.58.58,0,0,0,.72-.24l0-.05h0a.58.58,0,0,0,.27.1.66.66,0,0,0,.58-.34A.65.65,0,0,0,16.93,22.71Z"/><path class="cls-10" d="M16.33,22.79a.49.49,0,0,1-.48.49.48.48,0,0,1-.49-.48.47.47,0,0,1,.47-.49A.49.49,0,0,1,16.33,22.79Z"/><path class="cls-9" d="M6.21,26.08,6.12,26a.81.81,0,0,0,.13-.15.49.49,0,0,0-.17-.61.53.53,0,0,0-.63.08l-.08.07a.58.58,0,0,0-.14-.31.59.59,0,0,0-.86,0,.61.61,0,0,0-.14.7l0,.06a.1.1,0,0,0,0,.05.48.48,0,0,0-.4.29.44.44,0,0,0,.3.64.47.47,0,0,0,.2,0c-.07.22,0,.38.26.49a.6.6,0,0,0,.72-.24l0-.06h0a.41.41,0,0,0,.27.1.61.61,0,0,0,.57-.33A.65.65,0,0,0,6.21,26.08Z"/><path class="cls-10" d="M5.6,26.15a.49.49,0,1,1-1,0,.48.48,0,0,1,.48-.49A.47.47,0,0,1,5.6,26.15Z"/><path class="cls-11" d="M35.89,48.3a.93.93,0,0,0-1.12.08,1.64,1.64,0,0,0-.17,1.67c.29.41,1.08.06,1.39-.11s.62-.22.68-.57S36.36,48.51,35.89,48.3Z"/><path class="cls-11" d="M27.7,49a.51.51,0,0,0-.63,0A.91.91,0,0,0,27,50c.16.24.61,0,.79-.06s.35-.13.38-.32S28,49.14,27.7,49Z"/><path class="cls-11" d="M34.11,48.23c.61-.91,1.08-3.54.5-4.37s-5-3.14-6.58-1.25a4.84,4.84,0,0,0-.83,2.88A2.37,2.37,0,0,0,28,47.71a7.82,7.82,0,0,0,3.18,1.63A3.33,3.33,0,0,0,34.11,48.23Z"/><path class="cls-11" d="M48.9,48.71a2.76,2.76,0,0,0,.25-2.12c-.33-.45-2.41-1.52-3.2-.6a2.34,2.34,0,0,0-.41,1.4A1.16,1.16,0,0,0,46,48.46a4,4,0,0,0,1.55.8A1.6,1.6,0,0,0,48.9,48.71Z"/><path class="cls-11" d="M41.27,38.75a1.18,1.18,0,0,0-.24-.31c-.6-.58-3.63-.7-3.87-.49a1.79,1.79,0,0,0-.43,1.2,5.38,5.38,0,0,0,0,1.5,3.67,3.67,0,0,0,.44,1c.23.43.51.79.75,1.21.38.68,1.23-.13,1.63-.45A5,5,0,0,0,41,40.61,2.18,2.18,0,0,0,41.27,38.75Z"/><path class="cls-11" d="M49.61,38.09a1.54,1.54,0,0,0,.27-.37c.43-.86-.5-4.2-.82-4.39a2.15,2.15,0,0,0-1.49-.06,6.78,6.78,0,0,0-1.67.53,4.23,4.23,0,0,0-.91.82c-.41.4-.51,2.53,0,2.86a5.91,5.91,0,0,0,2.48,1A2.59,2.59,0,0,0,49.61,38.09Z"/><path class="cls-12" d="M35.79,48.06a.9.9,0,0,0-1.1.08,1.64,1.64,0,0,0-.18,1.67c.29.41,1.07.06,1.38-.11s.61-.22.68-.57S36.26,48.27,35.79,48.06Z"/><path class="cls-12" d="M27.69,48.78a.53.53,0,0,0-.63,0,1,1,0,0,0-.1,1c.17.24.61,0,.79-.06s.34-.13.38-.33A.62.62,0,0,0,27.69,48.78Z"/><path class="cls-12" d="M34,48c.61-.91,1.07-3.55.5-4.37S29.62,40.48,28,42.37a4.91,4.91,0,0,0-.83,2.88A2.38,2.38,0,0,0,28,47.46a7.84,7.84,0,0,0,3.15,1.64A3.28,3.28,0,0,0,34,48Z"/><path class="cls-12" d="M48.69,48.47a2.8,2.8,0,0,0,.24-2.12c-.32-.45-2.39-1.52-3.16-.6a2.27,2.27,0,0,0-.4,1.4,1.13,1.13,0,0,0,.4,1.07,3.86,3.86,0,0,0,1.53.8A1.59,1.59,0,0,0,48.69,48.47Z"/><path class="cls-12" d="M41.12,38.53a1,1,0,0,0-.23-.31c-.6-.58-3.59-.7-3.84-.48a1.79,1.79,0,0,0-.42,1.19,5.87,5.87,0,0,0,0,1.51,3.75,3.75,0,0,0,.44,1c.22.44.5.8.74,1.21.38.68,1.21-.13,1.61-.45a5,5,0,0,0,1.48-1.76A2.21,2.21,0,0,0,41.12,38.53Z"/><path class="cls-12" d="M49.38,37.85a1.29,1.29,0,0,0,.26-.37c.43-.86-.49-4.2-.81-4.4a2.16,2.16,0,0,0-1.47,0,6.7,6.7,0,0,0-1.66.53,4.42,4.42,0,0,0-.9.82c-.4.4-.5,2.53,0,2.86a5.78,5.78,0,0,0,2.46,1A2.56,2.56,0,0,0,49.38,37.85Z"/><g class="cls-13"><path class="cls-12" d="M34.47,49.39a1.69,1.69,0,0,1,.33-1.08,1.14,1.14,0,0,1,1.36,0,1.72,1.72,0,0,0-.37-.22.9.9,0,0,0-1.1.08,1.67,1.67,0,0,0-.22,1.57A1.71,1.71,0,0,1,34.47,49.39Z"/><path class="cls-12" d="M27.26,48.9a.7.7,0,0,1,.6,0,.59.59,0,0,0-.17-.1.53.53,0,0,0-.63,0,1,1,0,0,0-.11.93A.9.9,0,0,1,27.26,48.9Z"/><path class="cls-12" d="M28.09,47.26a4.08,4.08,0,0,1-.33-3.53,2.09,2.09,0,0,1,1.5-1.85,8,8,0,0,1,.93-.24,2.49,2.49,0,0,0-2.17.73,4.91,4.91,0,0,0-.83,2.88A2.38,2.38,0,0,0,28,47.46a8.19,8.19,0,0,0,1.16.82A4.23,4.23,0,0,1,28.09,47.26Z"/><path class="cls-12" d="M45.7,47.68a1.76,1.76,0,0,1,.38-1.82c.77-.56,2.05-.1,2.84.49-.32-.46-2.38-1.52-3.15-.6a2.27,2.27,0,0,0-.4,1.4,1.13,1.13,0,0,0,.4,1.07,3.51,3.51,0,0,0,.42.31A2.2,2.2,0,0,1,45.7,47.68Z"/><path class="cls-12" d="M37,40.46a3.45,3.45,0,0,1,0-1.24A2.69,2.69,0,0,1,37.27,38a1.2,1.2,0,0,1,.46-.34,1.46,1.46,0,0,0-.68.1,1.79,1.79,0,0,0-.42,1.19,5.87,5.87,0,0,0,0,1.51,3.75,3.75,0,0,0,.44,1c.18.35.39.65.59,1A11,11,0,0,1,37,40.46Z"/><path class="cls-12" d="M44.59,36.31a5.68,5.68,0,0,1,.12-1.09,1.83,1.83,0,0,1,.93-1.29,4.9,4.9,0,0,1,3.25-.78.22.22,0,0,0-.06-.07,2.16,2.16,0,0,0-1.47,0,6.7,6.7,0,0,0-1.66.53,4.42,4.42,0,0,0-.9.82A3.63,3.63,0,0,0,44.63,37C44.63,36.79,44.58,36.55,44.59,36.31Z"/></g><path class="cls-11" d="M31.33,34.13a1.5,1.5,0,0,0,.13-1.2c-.18-.25-1.36-.86-1.8-.34a1.36,1.36,0,0,0-.24.79.67.67,0,0,0,.24.61,2.12,2.12,0,0,0,.87.45A.91.91,0,0,0,31.33,34.13Z"/><path class="cls-12" d="M31.2,34a1.58,1.58,0,0,0,.14-1.21c-.18-.25-1.35-.86-1.79-.33a1.31,1.31,0,0,0-.23.79.68.68,0,0,0,.23.61,2.11,2.11,0,0,0,.87.44A.87.87,0,0,0,31.2,34Z"/><path class="cls-14" d="M29.51,33.55a1,1,0,0,1,.22-1c.44-.32,1.16-.06,1.61.27-.19-.25-1.35-.85-1.79-.33a1.31,1.31,0,0,0-.23.79.68.68,0,0,0,.23.61l.24.17A1.44,1.44,0,0,1,29.51,33.55Z"/><path class="cls-11" d="M10.34,47.92A.93.93,0,0,0,9.22,48a1.64,1.64,0,0,0-.17,1.67c.29.41,1.08,0,1.39-.11s.62-.23.68-.58S10.81,48.13,10.34,47.92Z"/><path class="cls-11" d="M2.15,48.64a.53.53,0,0,0-.63,0,.93.93,0,0,0-.1,1c.16.24.61,0,.79-.06s.35-.13.39-.33S2.42,48.76,2.15,48.64Z"/><path class="cls-11" d="M8.56,47.84c.61-.9,1.08-3.54.5-4.37s-5-3.13-6.58-1.24a4.84,4.84,0,0,0-.83,2.88,2.34,2.34,0,0,0,.84,2.21A7.83,7.83,0,0,0,5.67,49,3.31,3.31,0,0,0,8.56,47.84Z"/><path class="cls-11" d="M22.74,46.63A2.71,2.71,0,0,0,23,44.51c-.32-.46-2.41-1.53-3.19-.61a2.36,2.36,0,0,0-.41,1.4,1.16,1.16,0,0,0,.41,1.08,3.82,3.82,0,0,0,1.54.79A1.64,1.64,0,0,0,22.74,46.63Z"/><path class="cls-11" d="M15.72,38.37a1,1,0,0,0-.24-.32c-.6-.58-3.63-.69-3.87-.48a1.76,1.76,0,0,0-.43,1.2,5.38,5.38,0,0,0,0,1.5,3.39,3.39,0,0,0,.45,1c.22.43.5.79.74,1.21.38.68,1.23-.14,1.63-.45a5,5,0,0,0,1.49-1.76A2.19,2.19,0,0,0,15.72,38.37Z"/><path class="cls-11" d="M24.06,37.71a1.26,1.26,0,0,0,.27-.37c.43-.87-.5-4.21-.82-4.4a2.21,2.21,0,0,0-1.49,0,6.78,6.78,0,0,0-1.67.53,4.23,4.23,0,0,0-.91.82c-.4.4-.51,2.53,0,2.86a6,6,0,0,0,2.48,1A2.62,2.62,0,0,0,24.06,37.71Z"/><path class="cls-12" d="M10.25,47.67a.93.93,0,0,0-1.11.09A1.66,1.66,0,0,0,9,49.43c.29.41,1.07,0,1.38-.12s.61-.22.68-.57S10.71,47.89,10.25,47.67Z"/><path class="cls-12" d="M2.14,48.4a.53.53,0,0,0-.63,0,1,1,0,0,0-.09,1c.16.23.6,0,.78-.06s.34-.13.38-.33S2.41,48.52,2.14,48.4Z"/><path class="cls-12" d="M8.48,47.6c.61-.9,1.07-3.54.5-4.37S4.07,40.1,2.47,42a4.89,4.89,0,0,0-.83,2.88,2.41,2.41,0,0,0,.83,2.21,8,8,0,0,0,3.15,1.64A3.28,3.28,0,0,0,8.48,47.6Z"/><path class="cls-12" d="M22.52,46.39a2.78,2.78,0,0,0,.24-2.13c-.31-.45-2.38-1.52-3.16-.6a2.43,2.43,0,0,0-.4,1.4,1.15,1.15,0,0,0,.4,1.07,3.87,3.87,0,0,0,1.53.8A1.6,1.6,0,0,0,22.52,46.39Z"/><path class="cls-12" d="M15.57,38.15a1.12,1.12,0,0,0-.23-.32c-.6-.57-3.59-.69-3.84-.48a1.9,1.9,0,0,0-.42,1.2,5.79,5.79,0,0,0,0,1.5,3.67,3.67,0,0,0,.44,1c.23.43.5.79.74,1.21.38.67,1.21-.14,1.62-.45A5,5,0,0,0,15.35,40,2.22,2.22,0,0,0,15.57,38.15Z"/><path class="cls-12" d="M23.83,37.46a1.38,1.38,0,0,0,.26-.36c.43-.87-.49-4.21-.81-4.4a2.16,2.16,0,0,0-1.47-.05,6.5,6.5,0,0,0-1.65.53,4.23,4.23,0,0,0-.91.82c-.4.39-.5,2.53,0,2.86a5.9,5.9,0,0,0,2.46,1A2.6,2.6,0,0,0,23.83,37.46Z"/><g class="cls-13"><path class="cls-12" d="M8.92,49a1.63,1.63,0,0,1,.34-1.07,1.12,1.12,0,0,1,1.35,0,1.69,1.69,0,0,0-.36-.23.93.93,0,0,0-1.11.09,1.67,1.67,0,0,0-.22,1.57A1.82,1.82,0,0,1,8.92,49Z"/><path class="cls-12" d="M1.71,48.52a.7.7,0,0,1,.6,0,.91.91,0,0,0-.17-.09.53.53,0,0,0-.63,0,.94.94,0,0,0-.11.92A.89.89,0,0,1,1.71,48.52Z"/><path class="cls-12" d="M2.54,46.88a4.09,4.09,0,0,1-.33-3.53,2.09,2.09,0,0,1,1.5-1.85,8,8,0,0,1,.93-.24A2.49,2.49,0,0,0,2.47,42a4.89,4.89,0,0,0-.83,2.88,2.41,2.41,0,0,0,.83,2.21,9.85,9.85,0,0,0,1.16.82A4.41,4.41,0,0,1,2.54,46.88Z"/><path class="cls-12" d="M19.54,45.6a1.75,1.75,0,0,1,.37-1.82c.78-.57,2.05-.11,2.85.48-.33-.46-2.38-1.52-3.16-.6a2.43,2.43,0,0,0-.4,1.4,1.15,1.15,0,0,0,.4,1.07,3.65,3.65,0,0,0,.43.31A2.24,2.24,0,0,1,19.54,45.6Z"/><path class="cls-12" d="M11.4,40.07a3.44,3.44,0,0,1,0-1.24,2.65,2.65,0,0,1,.35-1.23,1.29,1.29,0,0,1,.47-.35,1.64,1.64,0,0,0-.69.1,1.9,1.9,0,0,0-.42,1.2,5.79,5.79,0,0,0,0,1.5,3.67,3.67,0,0,0,.44,1c.18.35.4.65.6,1A10,10,0,0,1,11.4,40.07Z"/><path class="cls-12" d="M19,35.93a5.68,5.68,0,0,1,.12-1.09,1.84,1.84,0,0,1,.93-1.3,4.89,4.89,0,0,1,3.25-.77.14.14,0,0,0-.06-.07,2.16,2.16,0,0,0-1.47-.05,6.5,6.5,0,0,0-1.65.53,4.23,4.23,0,0,0-.91.82,3.63,3.63,0,0,0-.17,2.65C19.08,36.41,19,36.16,19,35.93Z"/></g><path class="cls-11" d="M5.78,33.75a1.51,1.51,0,0,0,.13-1.2c-.18-.26-1.36-.86-1.8-.34a1.26,1.26,0,0,0-.23.79.64.64,0,0,0,.23.61,2.25,2.25,0,0,0,.87.45A.94.94,0,0,0,5.78,33.75Z"/><path class="cls-12" d="M5.66,33.62a1.62,1.62,0,0,0,.13-1.21c-.18-.25-1.35-.86-1.79-.34a1.33,1.33,0,0,0-.23.79.68.68,0,0,0,.23.61,2.12,2.12,0,0,0,.87.45A.92.92,0,0,0,5.66,33.62Z"/><path class="cls-14" d="M4,33.17a1,1,0,0,1,.22-1c.44-.32,1.16-.06,1.61.27-.19-.26-1.35-.86-1.79-.34a1.33,1.33,0,0,0-.23.79.68.68,0,0,0,.23.61l.24.18A1.55,1.55,0,0,1,4,33.17Z"/><path class="cls-6" d="M6.83,28.38l0,0a3.17,3.17,0,0,0,.87-2.2,2.5,2.5,0,0,0-1,2.21Z"/><path class="cls-6" d="M6.38,28.73l0,0a3.18,3.18,0,0,1-2.27-.66,2.49,2.49,0,0,1,2.33.6S6.4,28.72,6.38,28.73Z"/><path class="cls-6" d="M16.86,25.68h0a3.11,3.11,0,0,0,1.57-1.77,2.52,2.52,0,0,0-1.65,1.75S16.84,25.68,16.86,25.68Z"/><path class="cls-6" d="M16.32,25.85h-.05a3.14,3.14,0,0,1-1.9-1.4,2.5,2.5,0,0,1,2,1.36Z"/><path class="cls-6" d="M29.27,29.75h0a3.2,3.2,0,0,0,2-1.22,2.52,2.52,0,0,0-2.1,1.17Z"/><path class="cls-6" d="M28.7,29.76h-.05a3.17,3.17,0,0,1-1.4-1.9,2.49,2.49,0,0,1,1.49,1.89S28.71,29.76,28.7,29.76Z"/><path class="cls-6" d="M48.58,30l.05,0a3.2,3.2,0,0,0,1.18-2,2.47,2.47,0,0,0-1.27,2Z"/><path class="cls-6" d="M48.09,30.28h0a3.18,3.18,0,0,1-2.15-1,2.5,2.5,0,0,1,2.22.94Z"/></g></g></g></svg>