<svg xmlns="http://www.w3.org/2000/svg" viewBox="0 0 73 198.57"><defs><style>.cls-1{fill:none;stroke:#000;stroke-miterlimit:10;}</style></defs><title>EnerveFichier 3</title><g id="Calque_2" data-name="Calque 2"><g id="Calque_1-2" data-name="Calque 1"><circle class="cls-1" cx="36.5" cy="36.5" r="36"/><line class="cls-1" x1="36.5" y1="72.5" x2="36.5" y2="144.5"/><circle cx="23" cy="30.5" r="4.5"/><circle class="cls-1" cx="23" cy="30.5" r="4.5"/><circle cx="50" cy="30.5" r="4.5"/><circle class="cls-1" cx="50" cy="30.5" r="4.5"/><line class="cls-1" x1="19" y1="53.5" x2="55" y2="53.5"/><path class="cls-1" d="M36.5,72.5c-7.66,6.12-25,21.8-27,45a52,52,0,0,0,0,9"/><path class="cls-1" d="M36.5,72.5c7.66,6.12,25,21.8,27,45a52,52,0,0,1,0,9"/><path class="cls-1" d="M36.5,144.5c-5,5.28-15.31,17.62-18,36a62.65,62.65,0,0,0,0,18"/><path class="cls-1" d="M36.5,144.5c5,5.28,15.31,17.62,18,36a62.65,62.65,0,0,1,0,18"/><line class="cls-1" x1="36.79" y1="27.84" x2="10.21" y2="23.16"/><line class="cls-1" x1="63.79" y1="23.16" x2="37.21" y2="27.84"/></g></g></svg>