<svg xmlns="http://www.w3.org/2000/svg" viewBox="0 0 118 198.57"><defs><style>.cls-1{fill:none;stroke:#000;stroke-miterlimit:10;}</style></defs><title>EnerveFichier 9</title><g id="Calque_2" data-name="Calque 2"><g id="Calque_1-2" data-name="Calque 1"><circle class="cls-1" cx="36.5" cy="36.5" r="36"/><line class="cls-1" x1="36.5" y1="72.5" x2="36.5" y2="144.5"/><circle cx="23" cy="30.5" r="4.5"/><circle class="cls-1" cx="23" cy="30.5" r="4.5"/><circle cx="50" cy="30.5" r="4.5"/><circle class="cls-1" cx="50" cy="30.5" r="4.5"/><line class="cls-1" x1="19" y1="53.5" x2="55" y2="53.5"/><path class="cls-1" d="M36.5,72.5c-7.66,6.12-25,21.8-27,45a52,52,0,0,0,0,9"/><path class="cls-1" d="M36.5,72.5c7.66,6.12,25,21.8,27,45a52,52,0,0,1,0,9"/><path class="cls-1" d="M36.5,144.5c-5,5.28-15.31,17.62-18,36a62.65,62.65,0,0,0,0,18"/><path class="cls-1" d="M36.5,144.5c5,5.28,15.31,17.62,18,36a62.65,62.65,0,0,1,0,18"/><line class="cls-1" x1="35.19" y1="32.25" x2="11.81" y2="18.75"/><line class="cls-1" x1="62.19" y1="18.75" x2="38.81" y2="32.25"/><circle class="cls-1" cx="95" cy="41.5" r="4.5"/><circle class="cls-1" cx="113" cy="41.5" r="4.5"/></g></g></svg>