<svg xmlns="http://www.w3.org/2000/svg" viewBox="0 0 73 197.7"><defs><style>.cls-1{fill:none;stroke:#000;stroke-miterlimit:10;}</style></defs><title>MarcherFichier 12</title><g id="Calque_2" data-name="Calque 2"><g id="Calque_1-2" data-name="Calque 1"><circle class="cls-1" cx="36.5" cy="36.5" r="36"/><line class="cls-1" x1="36.5" y1="72.5" x2="36.5" y2="144.5"/><circle cx="39" cy="32" r="4.5"/><circle class="cls-1" cx="39" cy="32" r="4.5"/><circle cx="66" cy="32" r="4.5"/><circle class="cls-1" cx="66" cy="32" r="4.5"/><line class="cls-1" x1="34" y1="54.5" x2="67.5" y2="54.5"/><path class="cls-1" d="M36.5,72.5c-.79,5-5.36,36.92,14,53a35.87,35.87,0,0,0,8,5"/><path class="cls-1" d="M36.5,72.5c-14.5,24.21-17.5,45.62-9,53,1.77,1.54,5,3.27,11,3"/><path class="cls-1" d="M36.5,144.5c1.19.52,28.64,13,30,37a34.85,34.85,0,0,1-3,16"/><path class="cls-1" d="M36.5,144.5c1.4,2,12.18,18,6,36a37.32,37.32,0,0,1-11,16"/></g></g></svg>