<svg xmlns="http://www.w3.org/2000/svg" viewBox="0 0 73 198.75"><defs><style>.cls-1{fill:none;stroke:#000;stroke-miterlimit:10;}</style></defs><title>MarcherFichier 4</title><g id="Calque_2" data-name="Calque 2"><g id="Calque_1-2" data-name="Calque 1"><circle class="cls-1" cx="36.5" cy="36.5" r="36"/><line class="cls-1" x1="36.5" y1="72.5" x2="36.5" y2="144.5"/><circle cx="39" cy="32" r="4.5"/><circle class="cls-1" cx="39" cy="32" r="4.5"/><circle cx="66" cy="32" r="4.5"/><circle class="cls-1" cx="66" cy="32" r="4.5"/><line class="cls-1" x1="34" y1="54.5" x2="67.5" y2="54.5"/><path class="cls-1" d="M36.5,72.5c-18.28,16.91-22.7,39.32-14,52,1.47,2.15,6.29,8.35,18,11"/><path class="cls-1" d="M36.5,72.5c-3.24,24.66,4.61,45.53,19,52a26.76,26.76,0,0,0,14,2"/><path class="cls-1" d="M36.5,144.5c.63.83,13.5,18.11,6,35a29.77,29.77,0,0,1-10,12"/><path class="cls-1" d="M36.5,144.5c1.4.84,23.64,14.6,23,37a36.13,36.13,0,0,1-5,17"/></g></g></svg>