<svg xmlns="http://www.w3.org/2000/svg" viewBox="0 0 73 198.88"><defs><style>.cls-1{fill:none;stroke:#000;stroke-miterlimit:10;}</style></defs><title>MarcherFichier 13</title><g id="Calque_2" data-name="Calque 2"><g id="Calque_1-2" data-name="Calque 1"><circle class="cls-1" cx="36.5" cy="36.5" r="36"/><line class="cls-1" x1="36.5" y1="72.5" x2="36.5" y2="144.5"/><circle cx="39" cy="32" r="4.5"/><circle class="cls-1" cx="39" cy="32" r="4.5"/><circle cx="66" cy="32" r="4.5"/><circle class="cls-1" cx="66" cy="32" r="4.5"/><line class="cls-1" x1="34" y1="54.5" x2="67.5" y2="54.5"/><path class="cls-1" d="M36.5,72.5c-.35,1.92-5.87,34.77,15,51a38.06,38.06,0,0,0,15,7"/><path class="cls-1" d="M36.5,72.5c-17,22.75-21.81,43.89-14,52,1.64,1.7,4.94,4,12,4"/><path class="cls-1" d="M36.5,144.5c16.14,12.16,26.05,24.43,28,32,.86,3.32,2.73,10.6-1,15h0a41.6,41.6,0,0,1-4.16,5.17c-.62.65-1.23,1.26-1.84,1.83"/><path class="cls-1" d="M36.5,144.5c1.32,1.87,13.12,19.2,6,36a53.75,53.75,0,0,1-7,10,67.62,67.62,0,0,1-8,8"/></g></g></svg>