<svg xmlns="http://www.w3.org/2000/svg" viewBox="0 0 73 198.93"><defs><style>.cls-1{fill:none;stroke:#000;stroke-miterlimit:10;}</style></defs><title>MarcherFichier 14</title><g id="Calque_2" data-name="Calque 2"><g id="Calque_1-2" data-name="Calque 1"><circle class="cls-1" cx="36.5" cy="36.5" r="36"/><line class="cls-1" x1="36.5" y1="72.5" x2="36.5" y2="144.5"/><circle cx="39" cy="32" r="4.5"/><circle class="cls-1" cx="39" cy="32" r="4.5"/><circle cx="66" cy="32" r="4.5"/><circle class="cls-1" cx="66" cy="32" r="4.5"/><line class="cls-1" x1="34" y1="54.5" x2="67.5" y2="54.5"/><path class="cls-1" d="M36.5,72.5c-.35,1.92-5.87,34.77,15,51a38.06,38.06,0,0,0,15,7"/><path class="cls-1" d="M36.5,72.5C17,91.84,11,113.25,18.5,123.5c1.5,2,4.92,5.52,13,7"/><path class="cls-1" d="M36.5,144.5c15,4.07,26.34,14.8,29,28a33.48,33.48,0,0,1-2,19h0a41.6,41.6,0,0,1-4.16,5.17c-.67.71-1.3,1.32-1.84,1.83"/><path class="cls-1" d="M36.5,144.5c2.38,6.6,5.8,18.67,4,32-1.32,9.81-4.67,14.36-6,16a26,26,0,0,1-7,6"/></g></g></svg>