<svg xmlns="http://www.w3.org/2000/svg" viewBox="0 0 73 198.88"><defs><style>.cls-1{fill:none;stroke:#000;stroke-miterlimit:10;}</style></defs><title>MarcherFichier 1</title><g id="Calque_2" data-name="Calque 2"><g id="Calque_1-2" data-name="Calque 1"><circle class="cls-1" cx="36.5" cy="36.5" r="36"/><line class="cls-1" x1="36.5" y1="72.5" x2="36.5" y2="144.5"/><circle cx="39" cy="32" r="4.5"/><circle class="cls-1" cx="39" cy="32" r="4.5"/><circle cx="66" cy="32" r="4.5"/><circle class="cls-1" cx="66" cy="32" r="4.5"/><line class="cls-1" x1="34" y1="54.5" x2="67.5" y2="54.5"/><path class="cls-1" d="M36.5,72.5c-22,16.22-29.15,38.28-22,50,1.13,1.85,5.18,7.65,17,10"/><path class="cls-1" d="M36.5,72.5c-1.33,23.54,6.89,43.72,22,51a31.22,31.22,0,0,0,13,3"/><path class="cls-1" d="M36.5,144.5a55.34,55.34,0,0,1-3,34,54.3,54.3,0,0,1-15,20"/><path class="cls-1" d="M36.5,144.5c1.4.84,23.64,14.6,23,37a36.13,36.13,0,0,1-5,17"/></g></g></svg>