<svg xmlns="http://www.w3.org/2000/svg" viewBox="0 0 73 196.86"><defs><style>.cls-1{fill:none;stroke:#000;stroke-miterlimit:10;}</style></defs><title>MarcherFichier 10</title><g id="Calque_2" data-name="Calque 2"><g id="Calque_1-2" data-name="Calque 1"><circle class="cls-1" cx="36.5" cy="36.5" r="36"/><line class="cls-1" x1="36.5" y1="72.5" x2="36.5" y2="144.5"/><circle cx="39" cy="32" r="4.5"/><circle class="cls-1" cx="39" cy="32" r="4.5"/><circle cx="66" cy="32" r="4.5"/><circle class="cls-1" cx="66" cy="32" r="4.5"/><line class="cls-1" x1="34" y1="54.5" x2="67.5" y2="54.5"/><path class="cls-1" d="M36.5,72.5c-7.44,24.76-4,47.18,9,56a24.78,24.78,0,0,0,11,4"/><path class="cls-1" d="M36.5,72.5c-11.11,24.17-9.93,45.37,0,52,2,1.35,5.94,3.12,13,2"/><path class="cls-1" d="M36.5,144.5c17.09,11.33,25.8,27.91,22,41a24.31,24.31,0,0,1-7,11"/><path class="cls-1" d="M36.5,144.5c1.28,1.32,15.43,16.35,11,35a34.47,34.47,0,0,1-9,16"/></g></g></svg>