<svg xmlns="http://www.w3.org/2000/svg" viewBox="0 0 73 199.71"><defs><style>.cls-1{fill:none;stroke:#000;stroke-miterlimit:10;}</style></defs><title>MarcherFichier 7</title><g id="Calque_2" data-name="Calque 2"><g id="Calque_1-2" data-name="Calque 1"><circle class="cls-1" cx="36.5" cy="36.5" r="36"/><line class="cls-1" x1="36.5" y1="72.5" x2="36.5" y2="144.5"/><circle cx="39" cy="32" r="4.5"/><circle class="cls-1" cx="39" cy="32" r="4.5"/><circle cx="66" cy="32" r="4.5"/><circle class="cls-1" cx="66" cy="32" r="4.5"/><line class="cls-1" x1="34" y1="54.5" x2="67.5" y2="54.5"/><path class="cls-1" d="M36.5,72.5c-14.42,19.18-16,41.16-6,53,2,2.38,6.67,6.91,16,9"/><path class="cls-1" d="M36.5,72.5c-7,23.58-2.42,44.62,10,52a23.26,23.26,0,0,0,13,3"/><path class="cls-1" d="M36.5,144.5c12.33,12.38,17.18,28.16,12,40a25.64,25.64,0,0,1-8,10"/><path class="cls-1" d="M36.5,144.5c2.9,2.51,18.11,16.17,18,37a44.5,44.5,0,0,1-4,18"/></g></g></svg>