<svg xmlns="http://www.w3.org/2000/svg" viewBox="0 0 73 198.63"><defs><style>.cls-1{fill:none;stroke:#000;stroke-miterlimit:10;}</style></defs><title>MarcherFichier 8</title><g id="Calque_2" data-name="Calque 2"><g id="Calque_1-2" data-name="Calque 1"><circle class="cls-1" cx="36.5" cy="36.5" r="36"/><line class="cls-1" x1="36.5" y1="72.5" x2="36.5" y2="144.5"/><circle cx="39" cy="32" r="4.5"/><circle class="cls-1" cx="39" cy="32" r="4.5"/><circle cx="66" cy="32" r="4.5"/><circle class="cls-1" cx="66" cy="32" r="4.5"/><line class="cls-1" x1="34" y1="54.5" x2="67.5" y2="54.5"/><path class="cls-1" d="M36.5,72.5c-12.81,23.81-12,47.57,0,58,2.46,2.14,7,5.16,15,6"/><path class="cls-1" d="M36.5,72.5c-.79,2.57-10.95,36.94,7,53a28.17,28.17,0,0,0,8,5"/><path class="cls-1" d="M36.5,144.5c13.64,12.4,19.73,28.52,15,41a25.62,25.62,0,0,1-7,10"/><path class="cls-1" d="M36.5,144.5C41,150,51.42,164,51.5,183.5a56.17,56.17,0,0,1-2,15"/></g></g></svg>