<svg xmlns="http://www.w3.org/2000/svg" viewBox="0 0 73 196.87"><defs><style>.cls-1{fill:none;stroke:#000;stroke-miterlimit:10;}</style></defs><title>MarcherFichier 11</title><g id="Calque_2" data-name="Calque 2"><g id="Calque_1-2" data-name="Calque 1"><circle class="cls-1" cx="36.5" cy="36.5" r="36"/><line class="cls-1" x1="36.5" y1="72.5" x2="36.5" y2="144.5"/><circle cx="39" cy="32" r="4.5"/><circle class="cls-1" cx="39" cy="32" r="4.5"/><circle cx="66" cy="32" r="4.5"/><circle class="cls-1" cx="66" cy="32" r="4.5"/><line class="cls-1" x1="34" y1="54.5" x2="67.5" y2="54.5"/><path class="cls-1" d="M36.5,72.5c-6.19,23.81-2,45.34,11,54a25.82,25.82,0,0,0,11,4"/><path class="cls-1" d="M36.5,72.5c-12.41,25.14-13.87,46.47-5,53,1.85,1.36,5.11,2.79,11,2"/><path class="cls-1" d="M36.5,144.5c2.26,2.41,19.62,21.09,26,34,2.21,4.46,3.12,8.28,2,12a13.26,13.26,0,0,1-4,6"/><path class="cls-1" d="M36.5,144.5c2.62,4.7,12.31,23.34,5,42a39.28,39.28,0,0,1-5,9"/></g></g></svg>