<svg xmlns="http://www.w3.org/2000/svg" viewBox="0 0 73 198.75"><defs><style>.cls-1{fill:none;stroke:#000;stroke-miterlimit:10;}</style></defs><title>MarcherFichier 3</title><g id="Calque_2" data-name="Calque 2"><g id="Calque_1-2" data-name="Calque 1"><circle class="cls-1" cx="36.5" cy="36.5" r="36"/><line class="cls-1" x1="36.5" y1="72.5" x2="36.5" y2="144.5"/><circle cx="39" cy="32" r="4.5"/><circle class="cls-1" cx="39" cy="32" r="4.5"/><circle cx="66" cy="32" r="4.5"/><circle class="cls-1" cx="66" cy="32" r="4.5"/><line class="cls-1" x1="34" y1="54.5" x2="67.5" y2="54.5"/><path class="cls-1" d="M36.5,72.5c-19.95,14-26.39,35.78-19,49,4.8,8.59,14.45,11.83,19,13"/><path class="cls-1" d="M36.5,72.5c-.07,1.86-1,39.64,22,51a30.55,30.55,0,0,0,11,3"/><path class="cls-1" d="M36.5,144.5c.87,1.38,10.3,16.94,3,33a33.4,33.4,0,0,1-14,15"/><path class="cls-1" d="M36.5,144.5c1.4.84,23.64,14.6,23,37a36.13,36.13,0,0,1-5,17"/></g></g></svg>