<svg xmlns="http://www.w3.org/2000/svg" viewBox="0 0 73 198.64"><defs><style>.cls-1{fill:none;stroke:#000;stroke-miterlimit:10;}</style></defs><title>MarcherFichier 5</title><g id="Calque_2" data-name="Calque 2"><g id="Calque_1-2" data-name="Calque 1"><circle class="cls-1" cx="36.5" cy="36.5" r="36"/><line class="cls-1" x1="36.5" y1="72.5" x2="36.5" y2="144.5"/><circle cx="39" cy="32" r="4.5"/><circle class="cls-1" cx="39" cy="32" r="4.5"/><circle cx="66" cy="32" r="4.5"/><circle class="cls-1" cx="66" cy="32" r="4.5"/><line class="cls-1" x1="34" y1="54.5" x2="67.5" y2="54.5"/><path class="cls-1" d="M36.5,72.5c-16.58,19.84-19,43-9,55,1.92,2.29,6.75,7.12,17,9"/><path class="cls-1" d="M36.5,72.5c-4.65,25.24,1.65,46.57,15,53a22.88,22.88,0,0,0,12,2"/><path class="cls-1" d="M36.5,144.5c11.13,13.94,14.43,30.15,8,41a23.65,23.65,0,0,1-8,8"/><path class="cls-1" d="M36.5,144.5c3.85,3.22,18.65,16.32,20,37a47.9,47.9,0,0,1-2,17"/></g></g></svg>