<svg xmlns="http://www.w3.org/2000/svg" viewBox="0 0 73 197.95"><defs><style>.cls-1{fill:none;stroke:#000;stroke-miterlimit:10;}</style></defs><title>MarcherFichier 9</title><g id="Calque_2" data-name="Calque 2"><g id="Calque_1-2" data-name="Calque 1"><circle class="cls-1" cx="36.5" cy="36.5" r="36"/><line class="cls-1" x1="36.5" y1="72.5" x2="36.5" y2="144.5"/><circle cx="39" cy="32" r="4.5"/><circle class="cls-1" cx="39" cy="32" r="4.5"/><circle cx="66" cy="32" r="4.5"/><circle class="cls-1" cx="66" cy="32" r="4.5"/><line class="cls-1" x1="34" y1="54.5" x2="67.5" y2="54.5"/><path class="cls-1" d="M36.5,72.5c-10.52,24.79-8.51,48.25,4,58a25.28,25.28,0,0,0,13,5"/><path class="cls-1" d="M36.5,72.5c-.58,1.72-12.46,38.34,5,53a23.21,23.21,0,0,0,7,4"/><path class="cls-1" d="M36.5,144.5c18.94,16.43,26.93,35.34,21,46-1.18,2.13-3.42,4.82-8,7"/><path class="cls-1" d="M36.5,144.5c2,2,16.68,17.49,13,37a36,36,0,0,1-6,14"/></g></g></svg>