<svg xmlns="http://www.w3.org/2000/svg" viewBox="0 0 73 174.88"><defs><style>.cls-1{fill:none;stroke:#000;stroke-miterlimit:10;}</style></defs><title>SauterFichier 9</title><g id="Calque_2" data-name="Calque 2"><g id="Calque_1-2" data-name="Calque 1"><circle class="cls-1" cx="36.5" cy="36.5" r="36"/><line class="cls-1" x1="36.5" y1="72.5" x2="36.5" y2="144.5"/><circle cx="23" cy="32" r="4.5"/><circle class="cls-1" cx="23" cy="32" r="4.5"/><circle cx="50" cy="32" r="4.5"/><circle class="cls-1" cx="50" cy="32" r="4.5"/><line class="cls-1" x1="18.5" y1="54.5" x2="54.5" y2="54.5"/><path class="cls-1" d="M36.5,72.5c-7.66,6.12-25,21.8-27,45a52,52,0,0,0,0,9"/><path class="cls-1" d="M36.5,72.5c7.66,6.12,25,21.8,27,45a52,52,0,0,1,0,9"/><path class="cls-1" d="M36.5,145.5c-.79-2.16-6.33-16.91-14-17-8.11-.09-16.84,16.23-14,30,1.74,8.45,7.41,13.83,10,16"/><path class="cls-1" d="M36.5,145.5c.52-1.57,5.88-17.46,13.75-17.66s16.12,15.3,14.25,28.66c-1.33,9.49-7.46,15.7-10,18"/></g></g></svg>