<svg xmlns="http://www.w3.org/2000/svg" viewBox="0 0 85.76 197.6"><defs><style>.cls-1{fill:none;stroke:#000;stroke-miterlimit:10;}</style></defs><title>SauterFichier 11</title><g id="Calque_2" data-name="Calque 2"><g id="Calque_1-2" data-name="Calque 1"><circle class="cls-1" cx="43.41" cy="36.5" r="36"/><line class="cls-1" x1="43.41" y1="72.5" x2="43.41" y2="144.5"/><circle cx="29.91" cy="32" r="4.5"/><circle class="cls-1" cx="29.91" cy="32" r="4.5"/><circle cx="56.91" cy="32" r="4.5"/><circle class="cls-1" cx="56.91" cy="32" r="4.5"/><line class="cls-1" x1="25.41" y1="54.5" x2="61.41" y2="54.5"/><path class="cls-1" d="M43.41,72.5c-3.87,21.51-17.81,34.25-29,33-1.53-.17-7.87-1.15-14-10"/><path class="cls-1" d="M43.41,72.5c4.89,22.56,18.23,36.65,30,36,2.33-.13,6.78-1,12-6"/><path class="cls-1" d="M43.41,145.5c-15.42,1.49-19.77,7.82-21,10s-2.13,5.91,4,37c.41,2.1.76,3.83,1,5"/><path class="cls-1" d="M43.41,145.5c3.6-1,12.56-2.83,18,2,5.28,4.69,4.24,13.66,3,25a86.14,86.14,0,0,1-3,15"/><line class="cls-1" x1="25.41" y1="54.5" x2="37.41" y2="63.5"/></g></g></svg>