<svg xmlns="http://www.w3.org/2000/svg" viewBox="0 0 73 188.88"><defs><style>.cls-1{fill:none;stroke:#000;stroke-miterlimit:10;}</style></defs><title>SauterFichier 19</title><g id="Calque_2" data-name="Calque 2"><g id="Calque_1-2" data-name="Calque 1"><circle class="cls-1" cx="36.5" cy="36.5" r="36"/><line class="cls-1" x1="36.5" y1="72.5" x2="36.5" y2="144.5"/><circle cx="23" cy="32" r="4.5"/><circle class="cls-1" cx="23" cy="32" r="4.5"/><circle cx="50" cy="32" r="4.5"/><circle class="cls-1" cx="50" cy="32" r="4.5"/><line class="cls-1" x1="18.5" y1="54.5" x2="54.5" y2="54.5"/><path class="cls-1" d="M36.5,72.5c-7.66,6.12-25,21.8-27,45a52,52,0,0,0,0,9"/><path class="cls-1" d="M36.5,72.5c7.66,6.12,25,21.8,27,45a52,52,0,0,1,0,9"/><path class="cls-1" d="M36.5,144.5c-3-1.52-8.36-3.6-14-2-10.95,3.12-16.42,18.31-14,30,1.76,8.52,7.44,13.87,10,16"/><path class="cls-1" d="M36.5,144.5c2.73-1.59,8.07-4.09,13.75-2.66,10.63,2.69,15.81,17.47,14.25,28.66-1.33,9.51-7.42,15.68-10,18"/></g></g></svg>