<svg xmlns="http://www.w3.org/2000/svg" viewBox="0 0 84.88 197.9"><defs><style>.cls-1{fill:none;stroke:#000;stroke-miterlimit:10;}</style></defs><title>SauterFichier 17</title><g id="Calque_2" data-name="Calque 2"><g id="Calque_1-2" data-name="Calque 1"><circle class="cls-1" cx="41.43" cy="36.5" r="36"/><line class="cls-1" x1="41.43" y1="72.5" x2="41.43" y2="144.5"/><circle cx="27.93" cy="32" r="4.5"/><circle class="cls-1" cx="27.93" cy="32" r="4.5"/><circle cx="54.93" cy="32" r="4.5"/><circle class="cls-1" cx="54.93" cy="32" r="4.5"/><line class="cls-1" x1="23.43" y1="54.5" x2="59.43" y2="54.5"/><path class="cls-1" d="M41.43,72.5c-22.15,2.4-30.57,8.52-34,14,0,0-.18.28-7,12h0"/><path class="cls-1" d="M41.43,72.5c6,.67,22.64,3.34,35,17a49.49,49.49,0,0,1,8,12"/><path class="cls-1" d="M41.43,145.5c3.75-.94,11.63-2.25,18,2,11.47,7.65,8.59,27,8,31a45.37,45.37,0,0,1-4,13"/><line class="cls-1" x1="23.43" y1="54.5" x2="36.43" y2="63.5"/><line class="cls-1" x1="59.43" y1="54.5" x2="36.43" y2="63.5"/><path class="cls-1" d="M23.43,197.5c-15.87-11.61-18.66-31.78-10-43,5.91-7.65,17-10.9,28-9"/></g></g></svg>