<svg xmlns="http://www.w3.org/2000/svg" viewBox="0 0 85.75 197.6"><defs><style>.cls-1{fill:none;stroke:#000;stroke-miterlimit:10;}</style></defs><title>SauterFichier 10</title><g id="Calque_2" data-name="Calque 2"><g id="Calque_1-2" data-name="Calque 1"><circle class="cls-1" cx="43.35" cy="36.5" r="36"/><line class="cls-1" x1="43.35" y1="72.5" x2="43.35" y2="144.5"/><circle cx="29.85" cy="32" r="4.5"/><circle class="cls-1" cx="29.85" cy="32" r="4.5"/><circle cx="56.85" cy="32" r="4.5"/><circle class="cls-1" cx="56.85" cy="32" r="4.5"/><line class="cls-1" x1="25.35" y1="54.5" x2="61.35" y2="54.5"/><path class="cls-1" d="M43.35,72.5c-3.45,22.75-16.85,37.29-29,37-2.2,0-7.64-.67-14-7"/><path class="cls-1" d="M43.35,72.5c7.74,25.82,21.29,41.4,32,40,2.24-.29,5.92-1.53,10-7"/><path class="cls-1" d="M43.35,145.5c-15.41,1.49-19.77,7.82-21,10s-2.13,5.91,4,37c.42,2.1.77,3.83,1,5"/><path class="cls-1" d="M43.35,145.5c3.6-1,12.57-2.83,18,2,5.28,4.69,4.24,13.66,3,25a85.21,85.21,0,0,1-3,15"/><line class="cls-1" x1="25.35" y1="54.5" x2="38.35" y2="63.5"/></g></g></svg>