<svg xmlns="http://www.w3.org/2000/svg" viewBox="0 0 92.81 197.89"><defs><style>.cls-1{fill:none;stroke:#000;stroke-miterlimit:10;}</style></defs><title>SauterFichier 16</title><g id="Calque_2" data-name="Calque 2"><g id="Calque_1-2" data-name="Calque 1"><circle class="cls-1" cx="45.44" cy="36.5" r="36"/><line class="cls-1" x1="45.44" y1="72.5" x2="45.44" y2="144.5"/><circle cx="31.94" cy="32" r="4.5"/><circle class="cls-1" cx="31.94" cy="32" r="4.5"/><circle cx="58.94" cy="32" r="4.5"/><circle class="cls-1" cx="58.94" cy="32" r="4.5"/><line class="cls-1" x1="27.44" y1="54.5" x2="63.44" y2="54.5"/><path class="cls-1" d="M45.44,72.5c-7.2,18.09-22.23,27.09-33,24C10.83,96,5,94.07.44,85.5"/><path class="cls-1" d="M45.44,72.5c3.94,16,16.55,26.45,29,26,9.4-.34,15.94-6.79,18-9"/><path class="cls-1" d="M45.44,145.5c3.75-.94,11.63-2.25,18,2,11.47,7.65,8.59,27,8,31a45.37,45.37,0,0,1-4,13"/><line class="cls-1" x1="27.44" y1="54.5" x2="40.44" y2="63.5"/><line class="cls-1" x1="63.44" y1="54.5" x2="40.44" y2="63.5"/><path class="cls-1" d="M27.44,197.5a29.26,29.26,0,0,1,18-52"/></g></g></svg>