<svg xmlns="http://www.w3.org/2000/svg" viewBox="0 0 73 182.88"><defs><style>.cls-1{fill:none;stroke:#000;stroke-miterlimit:10;}</style></defs><title>SauterFichier 7</title><g id="Calque_2" data-name="Calque 2"><g id="Calque_1-2" data-name="Calque 1"><circle class="cls-1" cx="36.5" cy="36.5" r="36"/><line class="cls-1" x1="36.5" y1="72.5" x2="36.5" y2="144.5"/><circle cx="23" cy="32" r="4.5"/><circle class="cls-1" cx="23" cy="32" r="4.5"/><circle cx="50" cy="32" r="4.5"/><circle class="cls-1" cx="50" cy="32" r="4.5"/><line class="cls-1" x1="18.5" y1="54.5" x2="54.5" y2="54.5"/><path class="cls-1" d="M36.5,72.5c-7.66,6.12-25,21.8-27,45a52,52,0,0,0,0,9"/><path class="cls-1" d="M36.5,72.5c7.66,6.12,25,21.8,27,45a52,52,0,0,1,0,9"/><path class="cls-1" d="M36.5,143.5c-2.73-3-8.07-7.72-14-7-10,1.22-16.62,17.42-14,30,1.75,8.42,7.36,13.78,10,16"/><path class="cls-1" d="M36.5,143.5c2.25-2.69,7.61-8.27,13.75-7.66,9.6,1,16,16.5,14.25,28.66-1.34,9.45-7.4,15.64-10,18"/></g></g></svg>