<svg xmlns="http://www.w3.org/2000/svg" viewBox="0 0 86.86 197.6"><defs><style>.cls-1{fill:none;stroke:#000;stroke-miterlimit:10;}</style></defs><title>SauterFichier 14</title><g id="Calque_2" data-name="Calque 2"><g id="Calque_1-2" data-name="Calque 1"><circle class="cls-1" cx="43.44" cy="36.5" r="36"/><line class="cls-1" x1="43.44" y1="72.5" x2="43.44" y2="144.5"/><circle cx="29.94" cy="32" r="4.5"/><circle class="cls-1" cx="29.94" cy="32" r="4.5"/><circle cx="56.94" cy="32" r="4.5"/><circle class="cls-1" cx="56.94" cy="32" r="4.5"/><line class="cls-1" x1="25.44" y1="54.5" x2="61.44" y2="54.5"/><path class="cls-1" d="M43.44,72.5c-4.24,18-18.22,28.09-29,26-8-1.56-12.7-9.56-14-12"/><path class="cls-1" d="M43.44,72.5c7.09,20.38,21.52,31.35,32,29,1.87-.42,6.56-1.92,11-9"/><path class="cls-1" d="M43.44,145.5c-15.42,1.49-19.77,7.82-21,10s-2.13,5.91,4,37c.41,2.1.76,3.83,1,5"/><path class="cls-1" d="M43.44,145.5c3.6-1,12.56-2.83,18,2,5.28,4.69,4.24,13.66,3,25a86.14,86.14,0,0,1-3,15"/><line class="cls-1" x1="25.44" y1="54.5" x2="38.44" y2="63.5"/></g></g></svg>