<svg xmlns="http://www.w3.org/2000/svg" viewBox="0 0 85.93 197.73"><defs><style>.cls-1{fill:none;stroke:#000;stroke-miterlimit:10;}</style></defs><title>SauterFichier 15</title><g id="Calque_2" data-name="Calque 2"><g id="Calque_1-2" data-name="Calque 1"><circle class="cls-1" cx="42.48" cy="36.5" r="36"/><line class="cls-1" x1="42.48" y1="72.5" x2="42.48" y2="144.5"/><circle cx="28.98" cy="32" r="4.5"/><circle class="cls-1" cx="28.98" cy="32" r="4.5"/><circle cx="55.98" cy="32" r="4.5"/><circle class="cls-1" cx="55.98" cy="32" r="4.5"/><line class="cls-1" x1="24.48" y1="54.5" x2="60.48" y2="54.5"/><path class="cls-1" d="M42.48,72.5c-7.76,17.31-22.73,24.74-32,21-6.22-2.51-9-9.67-10-13"/><path class="cls-1" d="M42.48,72.5c4.11,18.25,18.33,28.24,29,26,8.43-1.77,13-10.84,14-13"/><path class="cls-1" d="M42.48,145.5c-15.42,1.49-19.78,7.82-21,10-.16.27-.25.5-.38.77-3.45,7.42-2.47,14.59-1.62,20.23a65.73,65.73,0,0,0,7,21"/><path class="cls-1" d="M42.48,145.5c1.44-.46,10.77-3.27,18,2,7.74,5.64,7.23,16.29,7,21a34.85,34.85,0,0,1-7,19"/><line class="cls-1" x1="24.48" y1="54.5" x2="37.48" y2="63.5"/></g></g></svg>