<svg xmlns="http://www.w3.org/2000/svg" viewBox="0 0 73 198.81"><defs><style>.cls-1{fill:none;stroke:#000;stroke-miterlimit:10;}</style></defs><title>SauterFichier 3</title><g id="Calque_2" data-name="Calque 2"><g id="Calque_1-2" data-name="Calque 1"><circle class="cls-1" cx="36.5" cy="36.5" r="36"/><line class="cls-1" x1="36.5" y1="72.5" x2="36.5" y2="144.5"/><circle cx="23" cy="32" r="4.5"/><circle class="cls-1" cx="23" cy="32" r="4.5"/><circle cx="50" cy="32" r="4.5"/><circle class="cls-1" cx="50" cy="32" r="4.5"/><line class="cls-1" x1="18.5" y1="54.5" x2="54.5" y2="54.5"/><path class="cls-1" d="M36.5,72.5c-7.66,6.12-25,21.8-27,45a52,52,0,0,0,0,9"/><path class="cls-1" d="M36.5,72.5c7.66,6.12,25,21.8,27,45a52,52,0,0,1,0,9"/><path class="cls-1" d="M36.5,144.5C19.56,154.92,10,171,12.5,185.5a29,29,0,0,0,6,13"/><path class="cls-1" d="M36.5,144.5c15,7.81,24.42,21.69,24,36a34.47,34.47,0,0,1-6,18"/></g></g></svg>