<svg xmlns="http://www.w3.org/2000/svg" viewBox="0 0 84.81 197.6"><defs><style>.cls-1{fill:none;stroke:#000;stroke-miterlimit:10;}</style></defs><title>SauterFichier 12</title><g id="Calque_2" data-name="Calque 2"><g id="Calque_1-2" data-name="Calque 1"><circle class="cls-1" cx="42.43" cy="36.5" r="36"/><line class="cls-1" x1="42.43" y1="72.5" x2="42.43" y2="144.5"/><circle cx="28.93" cy="32" r="4.5"/><circle class="cls-1" cx="28.93" cy="32" r="4.5"/><circle cx="55.93" cy="32" r="4.5"/><circle class="cls-1" cx="55.93" cy="32" r="4.5"/><line class="cls-1" x1="24.43" y1="54.5" x2="60.43" y2="54.5"/><path class="cls-1" d="M42.43,72.5c-5.61,20.61-19.64,32-30,30-1.56-.3-7-1.65-12-10"/><path class="cls-1" d="M42.43,72.5c6.3,21.2,20,33.57,31,32,2.14-.31,6.39-1.46,11-7"/><path class="cls-1" d="M42.43,145.5c-15.42,1.49-19.78,7.82-21,10s-2.13,5.91,4,37c.41,2.1.76,3.83,1,5"/><path class="cls-1" d="M42.43,145.5c3.6-1,12.56-2.83,18,2,5.27,4.69,4.24,13.66,3,25a87.09,87.09,0,0,1-3,15"/><line class="cls-1" x1="24.43" y1="54.5" x2="37.43" y2="63.5"/></g></g></svg>